<?xml version="1.0" encoding="UTF-8"?><svg id="Ebene_1" xmlns="http://www.w3.org/2000/svg" xmlns:xlink="http://www.w3.org/1999/xlink" viewBox="0 0 885.94 171.77"><defs><style>.cls-1{fill:none;}.cls-2{fill:#1d1d1b;}.cls-3{clip-path:url(#clippath-1);}.cls-4{clip-path:url(#clippath);}</style><clipPath id="clippath"><rect class="cls-1" x="18" width="848.68" height="171.77"/></clipPath><clipPath id="clippath-1"><rect class="cls-1" x="18" width="848.68" height="171.77"/></clipPath></defs><polygon class="cls-2" points="234.81 25.83 206.93 101.88 179.13 25.83 126.41 25.83 98.52 101.88 70.73 25.83 18 25.83 70.73 145.94 126.41 145.94 152.77 85.88 179.13 145.94 234.81 145.94 287.53 25.83 234.81 25.83"/><g class="cls-4"><path class="cls-2" d="M428.58,96.16c-2.95,40.57-38.52,52.73-81.77,52.73-45.04-.09-82.22-13.14-82.04-58.62v-8.76c-.18-45.4,37-58.45,82.04-58.62,43.25.09,78.82,12.24,81.77,52.73h-47.99c-4.38-11.8-17.69-14.57-33.78-14.57-19.13.27-35.39,3.66-35.12,23.42v2.95c-.27,19.57,16,23.15,35.12,23.42,16.09,0,29.49-2.86,33.78-14.66h47.99Z"/><path class="cls-2" d="M522.34,63.9h-51.3v43.97h51.3c12.15,0,19.04-9.92,19.04-21.98s-6.88-21.99-19.04-21.99M531.1,25.83c32.98-.45,57.46,27.26,57.2,60.06.27,32.62-24.22,60.5-57.2,60.06h-106.88V25.83h106.88Z"/><path class="cls-2" d="M631.46,0h22.7c-7.81,17.28-13.44,33.24-16.89,47.9-2.92,12.45-4.38,25.74-4.38,39.86,0,27.23,7.09,55.23,21.27,84h-22.7c-11.56-16.38-19.67-31.2-24.35-44.46-4.68-13.25-7.02-27.15-7.02-41.69s2.46-29.4,7.37-42.98c4.91-13.59,12.91-27.79,24-42.63"/></g><polygon class="cls-2" points="663.1 25.83 803.68 25.83 803.68 56.57 709.93 56.57 709.93 71.94 803.68 71.94 803.68 99.73 709.93 99.73 709.93 115.11 803.68 115.11 803.68 145.94 663.1 145.94 663.1 25.83"/><g class="cls-3"><path class="cls-2" d="M859.31,42.63c4.91,13.58,7.37,27.91,7.37,42.99s-2.34,28.43-7.02,41.69c-4.68,13.25-12.8,28.07-24.35,44.46h-22.7c14.18-28.78,21.27-56.78,21.27-84.01,0-14.12-1.46-27.41-4.38-39.86-3.46-14.65-9.09-30.62-16.89-47.9h22.7c11.08,14.84,19.08,29.05,24,42.63"/></g></svg>

